<svg width="31" height="30" viewBox="0 0 31 30" fill="none" xmlns="http://www.w3.org/2000/svg">
<path d="M12.9368 5.67101L13.3105 5.70215L12.9368 5.67101ZM9.26227 7.79206L9.10238 8.13127L9.26227 7.79206ZM6.67751 8.60118L7.00227 8.78868L6.67751 8.60118ZM5.7222 10.2558L5.39745 10.0683H5.39745L5.7222 10.2558ZM6.31387 12.8988L6.10005 13.2069H6.10005L6.31387 12.8988ZM6.31343 17.1404L6.52725 17.4484H6.52725L6.31343 17.1404ZM5.72176 19.7834L6.04652 19.5959H6.04652L5.72176 19.7834ZM6.67707 21.438L6.35231 21.6255H6.35231L6.67707 21.438ZM9.26182 22.2471L9.10194 21.9079H9.10194L9.26182 22.2471ZM12.9368 24.3678L13.3105 24.3366L12.9368 24.3678ZM18.8336 24.3678L18.4599 24.3366L18.8336 24.3678ZM22.5057 22.2472L22.6656 21.908H22.6656L22.5057 22.2472ZM25.0905 21.4381L25.4152 21.6256H25.4152L25.0905 21.4381ZM26.0458 19.7835L26.3705 19.971L26.0458 19.7835ZM25.4541 17.1404L25.6679 16.8324L25.4541 17.1404ZM25.4537 12.8988L25.6675 13.2068L25.4537 12.8988ZM26.0453 10.2558L25.7206 10.4433L25.7206 10.4433L26.0453 10.2558ZM25.09 8.60111L25.4148 8.41361L25.09 8.60111ZM22.5053 7.792L22.3454 7.45279V7.45279L22.5053 7.792ZM18.8336 5.67101L19.2073 5.63987L18.8336 5.67101ZM22.2659 7.90485L22.106 7.56564L22.2659 7.90485ZM25.2731 13.0241L25.487 13.3321L25.2731 13.0241ZM22.2653 22.1339L22.4252 21.7947L22.2653 22.1339ZM25.2733 17.0149L25.0595 17.323L25.2733 17.0149ZM18.8557 24.1023L18.482 24.0712L18.8557 24.1023ZM6.64195 16.9124L6.42813 16.6043L6.64195 16.9124ZM6.64213 13.1267L6.85596 12.8186L6.64213 13.1267ZM9.58273 7.94311L9.42285 8.28232L9.58273 7.94311ZM13.3105 5.70215C13.3807 4.85993 14.0847 4.2121 14.9299 4.2121V3.4621C13.6947 3.4621 12.6657 4.40893 12.5631 5.63987L13.3105 5.70215ZM13.2813 6.05263L13.3105 5.70215L12.5631 5.63987L12.5339 5.99035L13.2813 6.05263ZM9.10238 8.13127L9.42285 8.28232L9.74262 7.6039L9.42215 7.45286L9.10238 8.13127ZM7.00227 8.78868C7.42484 8.05676 8.3379 7.77094 9.10238 8.13127L9.42215 7.45286C8.30483 6.92622 6.97035 7.34395 6.35275 8.41368L7.00227 8.78868ZM6.04696 10.4433L7.00227 8.78868L6.35275 8.41368L5.39745 10.0683L6.04696 10.4433ZM6.52769 12.5908C5.8334 12.1089 5.62439 11.1752 6.04696 10.4433L5.39745 10.0683C4.77984 11.138 5.08531 12.5026 6.10005 13.2069L6.52769 12.5908ZM6.85596 12.8186L6.52769 12.5908L6.10005 13.2069L6.42831 13.4347L6.85596 12.8186ZM6.52725 17.4484L6.85577 17.2204L6.42813 16.6043L6.09961 16.8323L6.52725 17.4484ZM6.04652 19.5959C5.62395 18.864 5.83296 17.9303 6.52725 17.4484L6.09961 16.8323C5.08487 17.5366 4.7794 18.9012 5.397 19.9709L6.04652 19.5959ZM7.00183 21.2505L6.04652 19.5959L5.397 19.9709L6.35231 21.6255L7.00183 21.2505ZM9.10194 21.9079C8.33746 22.2683 7.4244 21.9824 7.00183 21.2505L6.35231 21.6255C6.96991 22.6952 8.30439 23.113 9.42171 22.5863L9.10194 21.9079ZM9.42337 21.7564L9.10194 21.9079L9.42171 22.5863L9.74314 22.4348L9.42337 21.7564ZM13.3105 24.3366L13.2813 23.9858L12.5339 24.0481L12.5631 24.3989L13.3105 24.3366ZM14.9299 25.8267C14.0847 25.8267 13.3807 25.1788 13.3105 24.3366L12.5631 24.3989C12.6657 25.6298 13.6947 26.5767 14.9299 26.5767V25.8267ZM16.8405 25.8267H14.9299V26.5767H16.8405V25.8267ZM18.4599 24.3366C18.3897 25.1788 17.6856 25.8267 16.8405 25.8267V26.5767C18.0757 26.5767 19.1047 25.6298 19.2073 24.3989L18.4599 24.3366ZM18.482 24.0712L18.4599 24.3366L19.2073 24.3989L19.2294 24.1335L18.482 24.0712ZM22.6656 21.908L22.4252 21.7947L22.1055 22.4731L22.3458 22.5864L22.6656 21.908ZM24.7657 21.2506C24.3431 21.9825 23.4301 22.2683 22.6656 21.908L22.3458 22.5864C23.4632 23.113 24.7976 22.6953 25.4152 21.6256L24.7657 21.2506ZM25.721 19.596L24.7657 21.2506L25.4152 21.6256L26.3705 19.971L25.721 19.596ZM25.2403 17.4485C25.9346 17.9304 26.1436 18.864 25.721 19.596L26.3705 19.971C26.9881 18.9012 26.6827 17.5367 25.6679 16.8324L25.2403 17.4485ZM25.0595 17.323L25.2403 17.4485L25.6679 16.8324L25.4871 16.7069L25.0595 17.323ZM25.2398 12.5907L25.0593 12.716L25.487 13.3321L25.6675 13.2068L25.2398 12.5907ZM25.7206 10.4433C26.1431 11.1752 25.9341 12.1088 25.2398 12.5907L25.6675 13.2068C26.6822 12.5025 26.9877 11.138 26.3701 10.0682L25.7206 10.4433ZM24.7653 8.78861L25.7206 10.4433L26.3701 10.0683L25.4148 8.41361L24.7653 8.78861ZM22.6652 8.13121C23.4296 7.77088 24.3427 8.0567 24.7653 8.78861L25.4148 8.41361C24.7972 7.34389 23.4627 6.92616 22.3454 7.45279L22.6652 8.13121ZM22.4257 8.24405L22.6652 8.13121L22.3454 7.45279L22.106 7.56564L22.4257 8.24405ZM18.4599 5.70215L18.482 5.96724L19.2294 5.90496L19.2073 5.63987L18.4599 5.70215ZM16.8405 4.2121C17.6856 4.2121 18.3897 4.85993 18.4599 5.70215L19.2073 5.63987C19.1047 4.40893 18.0757 3.4621 16.8405 3.4621V4.2121ZM14.9299 4.2121H16.8405V3.4621H14.9299V4.2121ZM20.2907 7.41509C19.6984 7.07516 19.2808 6.52206 19.2294 5.90496L18.482 5.96724C18.5589 6.88999 19.1695 7.63634 19.9174 8.06557L20.2907 7.41509ZM22.106 7.56564C21.5489 7.8282 20.8756 7.75078 20.2907 7.41509L19.9174 8.06557C20.6615 8.49267 21.5967 8.63484 22.4257 8.24405L22.106 7.56564ZM24.6971 15.0193C24.6971 14.3304 24.9712 13.6901 25.487 13.3321L25.0593 12.716C24.2941 13.2471 23.9471 14.1489 23.9471 15.0193H24.6971ZM20.2905 22.6236C20.8753 22.288 21.5485 22.2106 22.1055 22.4731L22.4252 21.7947C21.5963 21.404 20.6613 21.5461 19.9172 21.9731L20.2905 22.6236ZM25.4871 16.7069C24.9713 16.3488 24.6971 15.7083 24.6971 15.0193H23.9471C23.9471 15.8899 24.2941 16.7918 25.0595 17.323L25.4871 16.7069ZM11.52 22.5887C12.0872 22.9202 12.4844 23.4544 12.5339 24.0481L13.2813 23.9858C13.2067 23.0908 12.621 22.3635 11.8985 21.9412L11.52 22.5887ZM9.74314 22.4348C10.2888 22.1777 10.9493 22.2551 11.52 22.5887L11.8985 21.9412C11.1668 21.5135 10.2424 21.3704 9.42337 21.7564L9.74314 22.4348ZM19.2294 24.1335C19.2808 23.5165 19.6984 22.9635 20.2905 22.6236L19.9172 21.9731C19.1694 22.4023 18.5589 23.1485 18.482 24.0712L19.2294 24.1335ZM7.17371 15.0193C7.17371 15.6673 6.91287 16.2678 6.42813 16.6043L6.85577 17.2204C7.58771 16.7124 7.92371 15.8523 7.92371 15.0193H7.17371ZM6.42831 13.4347C6.91292 13.7711 7.17371 14.3715 7.17371 15.0193H7.92371C7.92371 14.1865 7.58775 13.3265 6.85596 12.8186L6.42831 13.4347ZM11.5199 7.45C10.949 7.78369 10.2884 7.86113 9.74262 7.6039L9.42285 8.28232C10.242 8.66844 11.1665 8.5253 11.8984 8.09749L11.5199 7.45ZM12.5339 5.99035C12.4844 6.58411 12.0871 7.1184 11.5199 7.45L11.8984 8.09749C12.621 7.6751 13.2067 6.94776 13.2813 6.05263L12.5339 5.99035Z" fill="#FA5F0C"/>
<circle cx="15.9349" cy="15.0198" r="3.72743" stroke="#FA5F0C" stroke-width="0.75"/>
</svg>
