<?xml version="1.0" standalone="no"?>
<!DOCTYPE svg PUBLIC "-//W3C//DTD SVG 20010904//EN"
 "http://www.w3.org/TR/2001/REC-SVG-20010904/DTD/svg10.dtd">
<svg version="1.0" xmlns="http://www.w3.org/2000/svg"
 width="248.000000pt" height="248.000000pt" viewBox="0 0 248.000000 248.000000"
 preserveAspectRatio="xMidYMid meet">

<g transform="translate(0.000000,248.000000) scale(0.100000,-0.100000)"
fill="#000000" stroke="none">
<path d="M1110 2474 c-551 -70 -970 -454 -1086 -994 -25 -118 -25 -362 0 -480
108 -501 475 -868 976 -976 118 -25 362 -25 480 0 501 108 868 475 976 976 25
118 25 362 0 480 -106 494 -467 861 -956 971 -83 19 -315 32 -390 23z m-80
-929 l0 -95 -95 0 -95 0 0 45 c0 90 55 145 143 145 l47 0 0 -95z m541 80 c16
-9 39 -30 49 -48 18 -29 20 -51 20 -229 l0 -198 -250 0 -250 0 0 245 0 245
200 0 c162 0 207 -3 231 -15z m-541 -390 l0 -95 -95 0 -95 0 0 95 0 95 95 0
95 0 0 -95z m0 -300 l0 -95 -45 0 c-90 0 -145 55 -145 143 l0 47 95 0 95 0 0
-95z m310 0 l0 -95 -100 0 -100 0 0 95 0 95 100 0 100 0 0 -95z m300 50 c0
-90 -55 -145 -142 -145 l-48 0 0 95 0 95 95 0 95 0 0 -45z"/>
</g>
</svg>
