<?xml version="1.0" standalone="no"?>
<!DOCTYPE svg PUBLIC "-//W3C//DTD SVG 20010904//EN"
 "http://www.w3.org/TR/2001/REC-SVG-20010904/DTD/svg10.dtd">
<svg version="1.0" xmlns="http://www.w3.org/2000/svg"
 width="200.000000pt" height="200.000000pt" viewBox="0 0 200.000000 200.000000"
 preserveAspectRatio="xMidYMid meet">

<g transform="translate(0.000000,200.000000) scale(0.100000,-0.100000)"
fill="#084be9" stroke="none">
<path stroke="white" d="M135 1985 c-51 -18 -110 -81 -124 -131 -16 -57 -15 -1663 1 -1715 13
-46 68 -106 114 -125 28 -12 182 -14 877 -14 l843 0 44 22 c26 14 57 41 75 66
l30 44 3 845 c1 554 -1 858 -8 883 -13 49 -77 113 -128 128 -29 9 -260 12
-863 12 -684 -1 -831 -3 -864 -15z m956 -452 c59 -35 59 -33 59 -578 0 -545 0
-543 -59 -578 -40 -23 -216 -24 -249 -1 -51 35 -52 46 -52 444 l0 370 -100 0
c-170 0 -210 33 -210 176 0 99 13 140 54 165 28 17 53 19 279 19 217 0 253 -2
278 -17z m413 -13 c78 -50 104 -134 67 -215 -33 -74 -121 -125 -188 -109 -57
13 -111 53 -132 97 -80 164 99 324 253 227z"/>
</g>
</svg>
