<svg width="22" height="24" viewBox="0 0 22 24" fill="none" xmlns="http://www.w3.org/2000/svg">
<path d="M0.82195 4.42026C0.811082 3.95385 0.888911 3.48979 1.05099 3.05459C1.21307 2.61939 1.45622 2.22159 1.76655 1.8839C2.07688 1.54622 2.44831 1.27528 2.85962 1.08656C3.27092 0.897837 3.71404 0.795035 4.16366 0.784027L15.2643 0.784027C15.5034 0.799267 15.727 0.912034 15.8863 1.09771C16.0455 1.28338 16.1275 1.52688 16.1143 1.77503C16.1275 2.02318 16.0455 2.26667 15.8863 2.45234C15.727 2.63802 15.5034 2.75078 15.2643 2.76602L4.16366 2.76602C3.73455 2.76018 3.3207 2.93099 3.01275 3.24105C2.7048 3.55111 2.52786 3.97514 2.52068 4.42026V20.2839C2.52818 20.7288 2.70527 21.1525 3.01318 21.4623C3.32109 21.7721 3.73476 21.9427 4.16366 21.9369H15.2643C15.4981 21.9659 15.7136 22.0829 15.87 22.2656C16.0263 22.4483 16.1127 22.6842 16.1127 22.9285C16.1127 23.1729 16.0263 23.4087 15.87 23.5915C15.7136 23.7742 15.4981 23.8912 15.2643 23.9202H4.16366C3.71373 23.9097 3.27021 23.8072 2.85847 23.6187C2.44674 23.4302 2.07487 23.1594 1.76415 22.8216C1.45342 22.4839 1.20994 22.0859 1.04763 21.6505C0.885323 21.215 0.807368 20.7507 0.818233 20.2839L0.82195 4.42026ZM9.04179 11.2943H18.5824L15.1131 7.69531C15.0246 7.60273 14.9545 7.49296 14.9069 7.37229C14.8593 7.25161 14.835 7.12239 14.8356 6.99199C14.8361 6.8616 14.8613 6.73259 14.9099 6.61232C14.9585 6.49206 15.0294 6.3829 15.1187 6.29107C15.2989 6.10563 15.5428 6.00205 15.7967 6.00314C16.0505 6.00422 16.2936 6.10988 16.4724 6.29686L21.5698 11.5809C21.6587 11.673 21.7292 11.7825 21.7772 11.9029C21.8253 12.0233 21.8501 12.1524 21.8501 12.2827C21.8501 12.413 21.8253 12.5421 21.7772 12.6625C21.7292 12.7829 21.6587 12.8923 21.5698 12.9845L16.4724 18.275C16.3843 18.3705 16.2788 18.4469 16.1619 18.4996C16.0451 18.5522 15.9193 18.5802 15.7919 18.5817C15.6644 18.5832 15.538 18.5584 15.42 18.5085C15.302 18.4587 15.1948 18.3849 15.1047 18.2915C15.0145 18.198 14.9433 18.0869 14.8951 17.9645C14.847 17.8421 14.8229 17.711 14.8242 17.5789C14.8256 17.4467 14.8524 17.3161 14.9031 17.1949C14.9537 17.0736 15.0273 16.964 15.1193 16.8727L18.5886 13.2737H9.04798C8.73079 13.2737 8.4743 12.829 8.4743 12.2827C8.4743 11.7364 8.72459 11.2943 9.04179 11.2943Z" fill="white"/>
</svg>
