<svg width="66" height="66" viewBox="0 0 66 66" fill="none" xmlns="http://www.w3.org/2000/svg">
<path d="M0 33C0 14.7746 14.7746 0 33 0C51.2254 0 66 14.7746 66 33C66 51.2254 51.2254 66 33 66C14.7746 66 0 51.2254 0 33Z" fill="#FA5F0C"/>
<path d="M31.8069 22.0026C35.9542 22.0026 40.1145 22.0026 44.2617 22.0026C45.6658 22.0026 46.7839 22.4395 47.5769 23.3654C47.9799 23.8335 48.188 24.3536 48.188 24.9258C48.201 25.9452 48.201 26.9543 48.188 27.9737C48.188 28.5459 47.6159 28.9828 46.9269 28.9828C46.2248 28.9828 45.6788 28.5355 45.6788 27.9737C45.6658 27.0271 45.6788 26.0805 45.6788 25.1442C45.6788 24.4368 45.1718 24.0311 44.2877 24.0311C35.9672 24.0311 27.6337 24.0311 19.3131 24.0311C18.4291 24.0311 17.9221 24.4368 17.9221 25.1442C17.9221 31.1258 17.9221 37.1073 17.9221 43.0785C17.9221 43.7858 18.4291 44.1916 19.3131 44.1916C27.5947 44.1916 35.8892 44.1916 44.1707 44.1916C45.0548 44.1916 45.5618 43.7858 45.5618 43.0785C45.5618 42.1006 45.5618 41.1228 45.5618 40.1345C45.5618 39.5728 45.9778 39.1775 46.6279 39.0838C47.3039 38.9902 47.993 39.3959 48.058 39.9473C48.084 40.1657 48.071 40.3842 48.071 40.6026C48.071 41.4556 48.084 42.3087 48.071 43.1513C48.058 44.6077 46.8489 45.8248 45.1328 46.1265C44.8078 46.1785 44.4827 46.1993 44.1447 46.1993C35.8762 46.1993 27.5947 46.1993 19.3261 46.2097C17.337 46.2097 15.8939 45.1694 15.5169 43.9211C15.4389 43.6818 15.3999 43.4218 15.3999 43.1721C15.3999 37.1177 15.3999 31.0738 15.3999 25.0298C15.3999 23.3758 16.999 22.0546 19.0661 22.013C20.1452 21.9922 21.2243 22.0026 22.3033 22.0026C25.4625 22.0026 28.6347 22.0026 31.8069 22.0026Z" fill="black"/>
<path d="M41.7907 38.0231C39.7236 38.0231 37.6565 38.0231 35.5893 38.0231C34.4583 38.0231 33.5482 37.5342 33.1712 36.7331C33.0672 36.5147 33.0022 36.265 33.0022 36.0258C32.9892 34.6734 32.9892 33.3315 33.0022 31.9791C33.0022 30.8868 34.1203 29.9922 35.4853 29.9922C39.6976 29.9818 43.9229 29.9818 48.1351 29.9922C49.5002 29.9922 50.6053 30.8868 50.6053 31.9895C50.6183 33.3315 50.6053 34.663 50.6053 36.005C50.6053 37.1285 49.5392 38.0127 48.1221 38.0335C46.25 38.0543 44.3779 38.0439 42.5188 38.0439C42.2718 38.0231 42.0378 38.0231 41.7907 38.0231ZM35.5243 35.9946C39.7106 35.9946 43.8839 35.9946 48.0701 35.9946C48.0701 34.6526 48.0701 33.3315 48.0701 31.9999C43.8839 31.9999 39.7106 31.9999 35.5243 31.9999C35.5243 33.3419 35.5243 34.663 35.5243 35.9946Z" fill="black"/>
<path d="M38.8661 35.0479C38.1901 35.0479 37.631 34.6006 37.644 34.0596C37.644 33.5187 38.2031 33.0818 38.8791 33.0818C39.5551 33.0818 40.1142 33.5291 40.1012 34.07C40.1012 34.611 39.5551 35.0479 38.8661 35.0479Z" fill="black"/>
</svg>
